HIERARCHY
ROOT Hips
{
	OFFSET 0.0000 0.0000 0.0000
	CHANNELS 6 Xposition Yposition Zposition Zrotation Xrotation Yrotation
	JOINT Ab
	{
		OFFSET -0.0000 8.1305 -0.0000
		CHANNELS 3 Zrotation Xrotation Yrotation
		JOINT Chest
		{
			OFFSET -0.0000 26.2902 -0.0000
			CHANNELS 3 Zrotation Xrotation Yrotation
			JOINT Neck
			{
				OFFSET -0.0000 26.2902 0.0000
				CHANNELS 3 Zrotation Xrotation Yrotation
				JOINT Head
				{
					OFFSET -0.0000 10.8167 0.0000
					CHANNELS 3 Zrotation Xrotation Yrotation
					End Site
					{
						OFFSET -0.0000 16.7167 0.0000
					}
				}
			}
			JOINT LeftCollar
			{
				OFFSET -0.0000 26.2902 0.0000
				CHANNELS 3 Zrotation Xrotation Yrotation
				JOINT LeftShoulder
				{
					OFFSET 19.6667 -0.0000 0.0000
					CHANNELS 3 Zrotation Xrotation Yrotation
					JOINT LeftElbow
					{
						OFFSET 27.2190 0.0000 0.0000
						CHANNELS 3 Zrotation Xrotation Yrotation
						JOINT LeftWrist
						{
							OFFSET 30.7431 0.0000 0.0000
							CHANNELS 3 Zrotation Xrotation Yrotation
							End Site
							{
								OFFSET 0.0000 -14.7500 0.0000
							}
						}
					}
				}
			}
			JOINT RightCollar
			{
				OFFSET -0.0000 26.2902 0.0000
				CHANNELS 3 Zrotation Xrotation Yrotation
				JOINT RightShoulder
				{
					OFFSET -19.6667 0.0000 0.0000
					CHANNELS 3 Zrotation Xrotation Yrotation
					JOINT RightElbow
					{
						OFFSET -27.2190 0.0000 0.0000
						CHANNELS 3 Zrotation Xrotation Yrotation
						JOINT RightWrist
						{
							OFFSET -30.7431 0.0000 0.0000
							CHANNELS 3 Zrotation Xrotation Yrotation
							End Site
							{
								OFFSET -0.0000 -14.7500 0.0000
							}
						}
					}
				}
			}
		}
	}
	JOINT LeftHip
	{
		OFFSET 11.8000 0.0000 0.0000
		CHANNELS 3 Zrotation Xrotation Yrotation
		JOINT LeftKnee
		{
			OFFSET -0.0000 -39.7832 0.0000
			CHANNELS 3 Zrotation Xrotation Yrotation
			JOINT LeftAnkle
			{
				OFFSET -0.0000 -41.7317 0.0000
				CHANNELS 3 Zrotation Xrotation Yrotation
				End Site
				{
					OFFSET -0.0000 -4.9167 16.7167
				}
			}
		}
	}
	JOINT RightHip
	{
		OFFSET -11.8000 0.0000 0.0000
		CHANNELS 3 Zrotation Xrotation Yrotation
		JOINT RightKnee
		{
			OFFSET -0.0000 -39.7832 0.0000
			CHANNELS 3 Zrotation Xrotation Yrotation
			JOINT RightAnkle
			{
				OFFSET -0.0000 -41.7317 0.0000
				CHANNELS 3 Zrotation Xrotation Yrotation
				End Site
				{
					OFFSET -0.0000 -4.9167 16.7167
				}
			}
		}
	}
}
MOTION
Frames: 23
Frame Time: 0.010000
-10.7230 84.2878 72.3786 353.4194 346.8466 200.4604 359.3145 348.6581 357.4299 358.0945 17.3032 357.7873 344.6518 344.2657 351.1122 7.4493 8.4725 352.6906 337.4418 357.0494 14.6401 337.7479 54.7791 325.1270 17.0173 349.0947 295.7960 94.0629 352.9313 351.3222 25.2489 356.1233 342.8634 52.2463 36.9106 353.9958 333.9915 345.2303 58.0479 269.3759 350.6977 359.7780 357.3968 15.2052 0.4014 357.2293 6.1629 0.7021 346.8654 341.7772 9.8511 326.9482 323.3061 356.9040 18.6625 26.8190 5.3723 355.3713 343.7971 313.7992 
-10.5516 84.0700 71.3860 353.2739 346.3230 200.6899 359.4260 348.4575 357.3893 358.1067 17.2827 357.7364 344.4663 344.2591 351.0240 7.3390 7.9628 352.6682 337.3246 357.0522 14.5659 337.8983 55.0114 324.9981 17.2564 349.0311 296.3175 94.1722 352.8442 351.6351 25.4896 356.0888 342.9252 52.0253 36.9797 354.0645 333.9005 345.3442 57.3936 269.7151 350.4923 359.9474 357.3853 15.0774 0.3240 357.4354 6.5591 0.8509 346.1256 342.1410 9.9677 326.1437 322.8788 356.0314 19.5809 28.1301 5.1864 355.5716 343.8717 313.7369 
-10.3651 83.9050 70.4147 353.2022 345.8575 200.8485 359.6550 348.3314 357.3969 358.1085 17.2776 357.7216 344.3147 344.1530 350.9351 7.1832 7.4619 352.6564 337.1015 357.0327 14.4711 338.1265 55.0891 324.8855 17.4372 349.0157 296.7714 94.3803 352.9445 352.0008 25.7902 356.0344 342.9501 51.6249 37.1371 354.3219 333.8328 345.4877 56.6766 269.7154 350.3367 0.0209 357.4394 14.8852 0.1698 357.6014 7.0622 1.4040 345.3955 342.6613 9.7638 325.1854 322.1401 354.9553 21.0060 30.0541 5.1159 355.7093 343.6086 313.6865 
-10.1410 83.7798 69.4403 353.2661 345.5034 200.9142 0.0495 348.2482 357.4583 358.1042 17.3668 357.7462 344.1971 343.9848 350.8605 7.0404 6.9529 352.6628 336.7977 357.0075 14.3331 337.9298 54.6693 325.3114 17.3458 349.3205 297.0095 94.7924 353.0076 352.2835 26.0356 355.9953 343.0032 51.3181 37.4906 354.7077 333.5344 345.5200 55.7242 269.6120 350.3080 0.0400 357.6607 14.7381 0.0504 357.6867 7.7003 1.4469 344.8695 343.0306 10.1480 324.3516 321.2132 353.9517 22.8040 32.2212 4.9134 355.9922 342.4659 313.0999 
-9.8567 83.6959 68.4142 353.5688 345.3138 200.8479 0.6001 348.1442 357.6028 358.2525 17.6285 357.8179 344.0674 343.8297 350.7861 6.9345 6.3505 352.6743 336.5683 357.0049 14.1437 337.4372 54.3008 325.9558 17.2088 349.4660 297.2374 94.9609 352.8695 351.6726 26.2651 355.9794 343.1087 50.8652 37.9345 355.2224 333.1327 345.5369 54.6370 269.8091 350.1821 359.8820 358.2126 14.7013 0.3600 357.6940 8.2071 1.4294 344.1542 343.5608 10.4273 324.2162 320.3765 353.2098 24.0268 34.0638 4.2542 356.2530 341.9846 313.6313 
-9.5925 83.6550 67.4043 353.8975 345.1298 200.7910 1.1612 348.0769 357.7106 358.4744 17.8169 357.8341 344.2152 343.5197 350.7919 6.3821 6.1043 352.7425 336.5227 357.0612 13.8481 336.3463 54.4111 326.9774 17.6055 349.1395 297.5838 94.9358 352.7695 351.3309 26.3278 356.0084 343.3290 50.7695 38.3275 355.5605 332.5135 345.4635 53.3602 270.0521 349.9958 359.8111 358.7654 14.6252 0.6967 357.7098 8.7494 1.4239 343.2113 344.2721 10.7219 324.2862 319.6940 352.3549 24.7083 35.6762 3.4790 356.6466 341.6579 314.6225 
-9.3330 83.6621 66.3904 354.1643 344.8517 200.7180 1.5197 348.0146 357.7922 358.8640 17.8235 357.8171 344.3804 343.2593 350.8652 5.7601 6.0978 352.8680 336.3525 357.0808 13.6761 335.7626 54.5185 327.6384 17.8109 349.0900 297.9412 95.1941 352.9408 351.6328 26.3702 356.0484 343.5434 50.4182 38.8049 355.9431 331.9878 345.4881 52.2264 270.1897 350.1293 359.5482 359.2000 14.4500 1.1392 357.7612 9.2939 1.6581 341.8597 345.2916 10.7460 324.4356 319.1759 351.6205 25.0715 36.9706 2.9558 357.2336 341.1824 315.3978 
-9.1088 83.7138 65.3373 354.2478 344.6329 200.6554 1.7411 347.9892 357.8090 359.1853 17.8611 357.7576 344.1877 343.3569 350.8777 5.9289 5.8401 352.9058 336.2650 357.1051 13.6159 335.5384 54.7740 327.9568 17.9970 349.0189 298.2523 95.2293 353.0412 351.9797 26.3572 356.0900 343.6432 50.0632 39.6054 356.5499 331.3343 345.5156 50.8524 270.0334 350.2559 359.0952 359.4804 14.4100 1.6760 357.8171 9.7789 1.9140 341.2802 346.5340 10.6414 324.6696 319.0441 350.9756 25.1723 37.9581 2.8731 357.2037 340.8438 315.8590 
-8.8958 83.8175 64.2680 354.1796 344.4584 200.6602 1.7838 348.0424 357.8123 359.5285 17.8317 357.7036 344.0240 343.6558 350.8999 6.0674 5.6523 352.9173 336.3909 357.1407 13.5605 335.0903 55.4028 328.2323 18.4161 348.7774 298.7283 95.0413 353.0062 352.3608 26.3567 356.1215 343.7250 49.6194 40.3315 357.1370 330.6797 345.5560 49.5809 269.9581 350.5397 358.7469 359.6416 14.3648 2.0432 357.8595 10.3315 2.6400 341.2557 348.0989 10.3165 324.9342 319.2609 350.5908 25.2294 38.6537 3.2882 356.5274 340.6999 315.7814 
-8.6926 83.9678 63.2249 354.0555 344.2715 200.7595 1.8229 348.1599 357.7463 359.7034 17.7089 357.6052 344.1859 343.8315 350.9929 5.9679 5.7179 352.9605 336.6684 357.1851 13.6562 335.0512 56.2507 327.9486 18.9187 348.5103 299.3730 94.8840 352.9213 352.8069 26.4579 356.1273 343.7912 49.1206 40.8533 357.6997 330.1583 345.6745 48.5254 269.7695 350.7337 358.4750 359.7381 14.1654 2.1497 357.8831 11.0448 3.4813 341.1317 349.3638 9.9335 325.1695 319.6661 350.4406 25.2957 39.1437 4.0915 355.8542 340.3898 315.1248 
-8.4727 84.1490 62.1901 353.9605 344.0447 200.9933 1.8171 348.2573 357.6400 359.8712 17.5188 357.4711 344.6332 343.9659 351.1057 5.5071 5.8940 352.9944 336.9953 357.2143 13.7573 335.1390 57.0761 327.5881 19.3171 348.3210 299.9347 94.8268 352.8136 353.1119 26.5991 356.1031 343.7841 48.5350 41.1573 358.3516 329.7253 345.8321 47.5903 269.9021 350.7351 358.2882 359.8312 13.7766 2.2314 357.9922 11.9445 3.6760 342.0995 350.3776 10.0160 325.4366 320.1521 350.5389 25.3963 39.4316 4.5822 355.2099 340.0160 314.4455 
-8.1984 84.3598 61.1511 353.9861 343.8861 201.2579 1.7717 348.4470 357.5904 0.2549 17.2418 357.3742 344.7604 344.0198 351.1358 5.3196 6.1587 353.0026 337.1891 357.2185 13.8831 334.9159 57.4944 327.6123 19.3675 348.5046 300.1386 95.0585 352.7667 353.1809 26.5522 356.0924 343.6019 48.0363 41.6459 359.1607 329.2503 345.8721 46.6887 269.9272 350.8336 358.3893 0.0495 13.2288 2.3060 358.0991 13.0941 3.6957 344.2052 351.8263 10.3420 326.0338 320.6856 351.1181 25.5179 39.4078 4.6022 354.6335 339.7700 313.9640 
-7.9541 84.5946 60.1715 353.9674 343.6944 201.4711 1.7830 348.6305 357.5468 0.4199 16.9244 357.3090 345.0541 344.2747 351.2167 5.0929 6.1932 353.0206 337.4269 357.2444 13.8897 334.2380 57.5620 328.1661 19.0984 348.8699 300.0652 95.2060 352.7583 352.9389 26.4836 356.1005 343.5206 47.7111 42.2010 359.7962 328.5948 345.7698 45.8135 270.1846 350.8260 358.5099 0.0766 12.5787 2.2749 358.2493 14.1894 3.8649 346.0978 352.9205 10.6731 326.5468 321.1654 351.7008 25.6910 39.3068 4.3688 354.0594 339.5889 313.6681 
-7.7251 84.8497 59.2290 353.8849 343.4493 201.5479 1.7134 348.7484 357.5662 0.6590 16.7454 357.3061 344.9934 344.1309 351.2034 5.0677 6.5334 353.0225 337.5931 357.2510 13.9311 333.4479 57.4470 328.7942 18.7057 349.2548 299.7846 95.3546 352.8281 352.6790 26.3765 356.1116 343.4380 47.1432 42.6795 0.6573 327.9536 345.7191 45.0834 270.2603 350.9131 358.2399 359.9497 11.8356 2.0878 358.2055 15.1559 4.5970 346.9933 353.4873 11.2157 327.0448 321.4871 352.1782 25.7264 39.3138 4.2046 353.3757 339.4918 313.4311 
-7.4885 85.0979 58.2941 353.8180 343.2368 201.6076 1.6201 348.8576 357.6113 0.8913 16.6086 357.3311 344.9655 344.0227 351.1405 5.0802 6.7964 352.9598 337.7124 357.2521 13.9538 332.8906 57.3026 329.3470 18.2103 349.6347 299.3330 95.4420 352.9191 352.4360 26.2719 356.1188 343.3984 46.7824 42.8337 1.2735 327.3532 345.7385 44.7570 269.9187 351.0679 357.6301 359.8493 11.1074 2.0091 358.0099 15.8508 5.5275 346.6804 353.4259 11.8284 327.6273 321.8182 352.6211 25.5480 39.3527 4.4822 352.8423 339.4753 313.0858 
-7.2295 85.3502 57.3661 353.8593 343.0411 201.6977 1.5726 348.9500 357.6930 1.1185 16.4405 357.3872 345.0424 343.9768 351.0388 5.1159 6.9726 352.8361 337.8481 357.2571 14.0922 332.9229 57.3663 329.2994 17.7650 349.8358 298.9903 95.2158 352.9170 352.2202 26.1685 356.1325 343.3548 46.5580 42.8600 1.7450 326.9010 345.7001 44.6835 269.7024 351.0837 357.2339 359.8714 10.3918 2.2523 357.8099 16.2544 5.8422 346.6008 352.7375 11.6040 328.3668 322.1885 353.1548 25.2493 39.2795 4.7577 352.3286 339.5047 312.7653 
-6.9864 85.6271 56.4628 353.8550 342.8431 201.7359 1.4368 349.0767 357.8229 1.4032 16.2468 357.4943 345.0154 343.8975 350.8812 5.2857 7.1206 352.6716 337.9945 357.2521 14.1661 332.6991 57.4962 329.4443 17.3674 350.0126 298.6074 95.2931 353.0148 352.2666 26.0399 356.1254 343.2032 46.2352 42.9181 2.3054 326.4819 345.6059 44.8049 269.5005 351.0956 356.5824 359.7709 9.7636 2.7103 357.6715 16.1243 6.3180 345.4951 352.3037 10.9100 329.0855 322.5735 353.6766 24.8982 39.1616 5.0297 351.9051 339.5009 312.4637 
-6.7610 85.9173 55.5990 353.8244 342.5539 201.7646 1.2998 349.1415 357.9499 1.5599 16.0323 357.6155 345.0899 343.8417 350.7127 5.4164 7.2377 352.4794 338.1905 357.2671 14.2240 332.5135 57.6508 329.5363 17.0107 350.1487 298.2549 95.3654 353.0615 352.3506 25.9950 356.1143 343.0938 45.9443 42.9767 2.7120 326.0752 345.4302 45.1064 269.0535 351.3903 355.6353 359.5433 9.0241 3.2499 357.5204 15.7234 6.7415 345.6677 351.8644 10.0524 329.6726 322.9414 354.0116 24.4409 38.9447 5.4617 351.5453 339.5469 312.2150 
-6.5606 86.2184 54.7602 353.7593 342.2257 201.8065 1.1879 349.1504 358.0522 1.5866 15.8445 357.7244 345.1563 343.7950 350.5275 5.5989 7.3175 352.2713 338.3285 357.2638 14.3524 332.6807 57.6959 329.3274 16.5855 350.3628 298.0163 95.2389 352.9953 352.3493 26.0741 356.0665 343.0508 45.4841 42.8826 3.1049 325.8503 345.2776 45.5918 268.6393 351.5478 354.7489 359.1567 8.1746 3.6468 357.4113 15.2710 6.7321 347.5598 351.2933 9.8789 330.1705 323.3306 354.3313 23.9863 38.6046 5.7614 351.1604 339.6546 312.0477 
-6.3799 86.5273 53.9279 353.6770 341.9322 201.8303 1.0868 349.1718 358.1797 1.5822 15.6655 357.8665 345.1715 343.6729 350.3747 5.7535 7.4975 352.1187 338.3870 357.2478 14.3890 332.5007 57.6199 329.6120 16.1790 350.5286 297.7052 94.9228 352.8596 352.1078 26.1590 356.0331 343.0503 44.9756 42.7762 3.4736 325.6937 345.1219 46.1684 268.2684 351.7574 353.6295 358.6787 7.2587 3.9091 357.2969 14.9110 6.5163 348.5051 350.9106 10.3188 330.6491 323.7764 354.6505 23.5538 38.2298 6.0576 350.7920 339.7643 311.9476 
-6.1879 86.8435 53.0822 353.6288 341.7515 201.8087 1.0736 349.1738 358.3018 1.4821 15.6656 358.0021 345.1407 343.5193 350.2458 6.0228 7.6410 351.9959 338.4616 357.2411 14.4655 332.5187 57.4902 329.7107 15.8466 350.6168 297.4741 94.7125 352.7266 351.8686 26.3590 356.0120 343.1840 44.4032 42.4534 3.7884 325.7120 344.9806 46.9324 267.8458 352.0827 352.6736 358.2206 6.3612 4.0149 357.2022 14.5330 6.2123 348.8792 351.7930 15.8368 331.2901 324.3198 355.0386 23.0644 37.8055 6.4782 350.3598 339.9129 311.7376 
-6.0077 87.1665 52.2247 353.5737 341.6115 201.8043 1.0944 349.0946 358.3886 1.3025 15.8147 358.1079 345.1614 343.3576 350.1516 6.2164 7.7300 351.9036 338.5965 357.2586 14.5385 332.3776 57.3337 329.8757 15.6088 350.6552 297.3450 94.3851 352.5429 351.4467 26.5979 355.9930 343.3795 43.8276 42.0209 4.0901 325.8412 344.8503 47.8346 267.4203 352.2418 351.9269 357.7445 5.4126 4.0679 357.0757 14.2730 6.0104 348.8997 351.4347 17.4617 331.9693 324.9884 355.5891 22.6052 37.1824 6.6766 349.9660 340.0635 311.5867 
-5.8229 87.4954 51.3920 353.5492 341.4502 201.8219 1.0370 349.0901 358.5019 1.2708 15.7539 358.2328 344.9594 343.4175 350.0363 6.5920 7.6909 351.7905 338.6075 357.2513 14.5645 332.0811 57.1866 330.2912 15.4209 350.7068 297.2544 94.2407 352.4507 351.0729 26.7009 356.0161 343.4867 43.2572 41.7788 4.5300 325.9426 344.6567 48.5160 267.2570 352.3753 351.5105 357.2603 4.3190 3.9193 356.9510 14.1756 5.8436 348.8867 350.6194 17.7835 332.6494 325.7192 355.9636 21.9798 36.4469 7.2022 349.6991 340.2859 311.3913 
